<svg width="32" height="28" viewBox="0 0 32 28" fill="none" xmlns="http://www.w3.org/2000/svg">
<path d="M15.9995 10.9998V16.3332M15.9995 21.6665H16.0128M14.1533 4.18878L3.18675 23.1309C2.57848 24.1816 2.27434 24.7069 2.31929 25.1381C2.3585 25.5141 2.55553 25.8559 2.86134 26.0782C3.21195 26.3332 3.81897 26.3332 5.033 26.3332H26.966C28.1801 26.3332 28.7871 26.3332 29.1377 26.0782C29.4435 25.8559 29.6405 25.5141 29.6797 25.1381C29.7247 24.7069 29.4205 24.1816 28.8123 23.1309L17.8458 4.18878C17.2397 3.1419 16.9366 2.61845 16.5412 2.44265C16.1964 2.2893 15.8027 2.2893 15.4578 2.44265C15.0624 2.61845 14.7594 3.1419 14.1533 4.18878Z" stroke="#FF4F4E" stroke-width="3" stroke-linecap="round" stroke-linejoin="round"/>
</svg>
