<svg width="24" height="30" viewBox="0 0 24 30" fill="none" xmlns="http://www.w3.org/2000/svg">
<path d="M12.0002 14.9998L6.30298 10.2522C5.45651 9.5468 5.03328 9.1941 4.72901 8.76175C4.45942 8.37868 4.25921 7.95122 4.13752 7.49888C4.00016 6.98835 4.00016 6.43743 4.00016 5.33557V1.6665M12.0002 14.9998L17.6973 10.2522C18.5438 9.5468 18.967 9.1941 19.2713 8.76175C19.5409 8.37868 19.7411 7.95122 19.8628 7.49888C20.0002 6.98835 20.0002 6.43743 20.0002 5.33557V1.6665M12.0002 14.9998L6.30298 19.7475C5.45651 20.4529 5.03328 20.8056 4.72901 21.2379C4.45942 21.621 4.25921 22.0484 4.13752 22.5008C4.00016 23.0113 4.00016 23.5622 4.00016 24.6641V28.3332M12.0002 14.9998L17.6973 19.7475C18.5438 20.4529 18.967 20.8056 19.2713 21.2379C19.5409 21.621 19.7411 22.0484 19.8628 22.5008C20.0002 23.0113 20.0002 23.5622 20.0002 24.6641V28.3332M1.3335 1.6665H22.6668M1.3335 28.3332H22.6668" stroke="#79B5EC" stroke-width="2" stroke-linecap="round" stroke-linejoin="round"/>
</svg>
