<svg width="10" height="12" viewBox="0 0 10 12" fill="none" xmlns="http://www.w3.org/2000/svg">
<path d="M5 6L2.86356 4.21963C2.54613 3.95511 2.38742 3.82285 2.27332 3.66072C2.17222 3.51707 2.09714 3.35677 2.05151 3.18714C2 2.99569 2 2.7891 2 2.3759V1M5 6L7.13644 4.21963C7.45387 3.95511 7.61258 3.82285 7.72668 3.66072C7.82778 3.51707 7.90286 3.35677 7.94849 3.18714C8 2.99569 8 2.7891 8 2.3759V1M5 6L2.86356 7.78037C2.54613 8.04489 2.38742 8.17715 2.27332 8.33928C2.17222 8.48293 2.09714 8.64323 2.05151 8.81286C2 9.00431 2 9.2109 2 9.6241V11M5 6L7.13644 7.78037C7.45387 8.04489 7.61258 8.17715 7.72668 8.33928C7.82778 8.48293 7.90286 8.64323 7.94849 8.81286C8 9.00431 8 9.2109 8 9.6241V11M1 1H9M1 11H9" stroke="#79B5EC" stroke-linecap="round" stroke-linejoin="round"/>
</svg>
